<svg xmlns="http://www.w3.org/2000/svg" viewBox="0 0 1280 380" width="1280" height="380" role="img" aria-label="Retail Tower OS, POS track: one product, four development tracks, with AI woven through all of them">
<title>Retail Tower OS, POS track: one product, four development tracks, with AI woven through all of them</title>

<defs>
  <linearGradient id="bg" x1="0" y1="0" x2="1" y2="1">
    <stop offset="0" stop-color="#070b1f"/><stop offset=".55" stop-color="#0c1230"/><stop offset="1" stop-color="#060918"/>
  </linearGradient>
  <linearGradient id="aurora" x1="0" y1="0" x2="1" y2="0">
    <stop offset="0" stop-color="#22d3ee"/><stop offset=".5" stop-color="#a78bfa"/><stop offset="1" stop-color="#f472b6"/>
  </linearGradient>
  <linearGradient id="auroraV" x1="0" y1="0" x2="0" y2="1">
    <stop offset="0" stop-color="#22d3ee"/><stop offset=".5" stop-color="#a78bfa"/><stop offset="1" stop-color="#f472b6"/>
  </linearGradient>
  <pattern id="grid" width="32" height="32" patternUnits="userSpaceOnUse">
    <path d="M32 0H0V32" fill="none" stroke="#94a3b8" stroke-opacity=".07" stroke-width="1"/>
  </pattern>
  <filter id="glow" x="-50%" y="-50%" width="200%" height="200%">
    <feGaussianBlur stdDeviation="6" result="b"/><feMerge><feMergeNode in="b"/><feMergeNode in="SourceGraphic"/></feMerge>
  </filter>
  <filter id="soft" x="-50%" y="-50%" width="200%" height="200%"><feGaussianBlur stdDeviation="14"/></filter>
  <marker id="arr" viewBox="0 0 10 10" refX="8" refY="5" markerWidth="7" markerHeight="7" orient="auto-start-reverse">
    <path d="M1 1L9 5L1 9z" fill="#cbd5e1"/>
  </marker>
  <linearGradient id="g-pos" x1="0" y1="0" x2="0" y2="1"><stop offset="0" stop-color="#3b82f6"/><stop offset="1" stop-color="#1e3a8a"/></linearGradient>
  <linearGradient id="g-console" x1="0" y1="0" x2="0" y2="1"><stop offset="0" stop-color="#14b8a6"/><stop offset="1" stop-color="#0e7490"/></linearGradient>
  <linearGradient id="g-core" x1="0" y1="0" x2="0" y2="1"><stop offset="0" stop-color="#8b5cf6"/><stop offset="1" stop-color="#5b21b6"/></linearGradient>
  <linearGradient id="g-connector" x1="0" y1="0" x2="0" y2="1"><stop offset="0" stop-color="#f59e0b"/><stop offset="1" stop-color="#b45309"/></linearGradient>
</defs>

<style>
  text{font-family:'Segoe UI', system-ui, -apple-system, 'Helvetica Neue', Arial, sans-serif}
  .mono{font-family:ui-monospace, SFMono-Regular, Menlo, Consolas, monospace}
  .flow{stroke-dasharray:6 8;animation:flow 1.4s linear infinite}
  .spark{stroke-dasharray:46 460;animation:spark 3.2s linear infinite}
  .pulse{animation:pulse 2.6s ease-in-out infinite}
  .beacon{animation:beacon 2s ease-in-out infinite}
  @keyframes flow{to{stroke-dashoffset:-14}}
  @keyframes spark{from{stroke-dashoffset:0}to{stroke-dashoffset:-506}}
  @keyframes pulse{0%,100%{opacity:.35}50%{opacity:1}}
  @keyframes beacon{0%,100%{opacity:.25;r:5}50%{opacity:1;r:8}}
  @media (prefers-reduced-motion: reduce){*{animation:none!important}}
</style>
<rect width="1280" height="380" rx="20" fill="url(#bg)"/>
<rect width="1280" height="380" rx="20" fill="url(#grid)"/>
<circle cx="1000" cy="120" r="190" fill="#7c3aed" opacity="0.45" filter="url(#soft)"/>
<circle cx="140" cy="300" r="220" fill="#0891b2" opacity="0.25" filter="url(#soft)"/>
<circle cx="1180" cy="330" r="140" fill="#db2777" opacity="0.18" filter="url(#soft)"/>
<rect x=".5" y=".5" width="1279" height="379" rx="20" fill="none" stroke="#334155" stroke-opacity=".7"/>
<rect x="0" y="340" width="22" height="26" fill="#94a3b8" opacity=".07"/>
<rect x="30" y="322" width="22" height="44" fill="#94a3b8" opacity=".07"/>
<rect x="58" y="336" width="22" height="30" fill="#94a3b8" opacity=".07"/>
<rect x="90" y="308" width="22" height="58" fill="#94a3b8" opacity=".07"/>
<rect x="122" y="330" width="22" height="36" fill="#94a3b8" opacity=".07"/>
<rect x="150" y="344" width="22" height="22" fill="#94a3b8" opacity=".07"/>
<rect x="182" y="316" width="22" height="50" fill="#94a3b8" opacity=".07"/>
<rect x="214" y="332" width="22" height="34" fill="#94a3b8" opacity=".07"/>
<rect x="240" y="302" width="22" height="64" fill="#94a3b8" opacity=".07"/>
<rect x="272" y="338" width="22" height="28" fill="#94a3b8" opacity=".07"/>
<rect x="300" y="320" width="22" height="46" fill="#94a3b8" opacity=".07"/>
<rect x="332" y="342" width="22" height="24" fill="#94a3b8" opacity=".07"/>
<rect x="360" y="310" width="22" height="56" fill="#94a3b8" opacity=".07"/>
<rect x="392" y="334" width="22" height="32" fill="#94a3b8" opacity=".07"/>
<rect x="420" y="326" width="22" height="40" fill="#94a3b8" opacity=".07"/>
<rect x="452" y="346" width="22" height="20" fill="#94a3b8" opacity=".07"/>
<rect x="480" y="314" width="22" height="52" fill="#94a3b8" opacity=".07"/>
<rect x="512" y="336" width="22" height="30" fill="#94a3b8" opacity=".07"/>
<rect x="540" y="304" width="22" height="62" fill="#94a3b8" opacity=".07"/>
<rect x="572" y="330" width="22" height="36" fill="#94a3b8" opacity=".07"/>
<rect x="600" y="340" width="22" height="26" fill="#94a3b8" opacity=".07"/>
<rect x="630" y="318" width="22" height="48" fill="#94a3b8" opacity=".07"/>
<rect x="662" y="332" width="22" height="34" fill="#94a3b8" opacity=".07"/>
<text x="64" y="104" font-size="14" font-weight="700" letter-spacing="4" fill="#7dd3fc">RETAIL TOWER OS</text>
<text x="64" y="172" font-size="64" font-weight="800" fill="#fff">POS</text>
<rect x="64" y="190" width="120" height="4" rx="2" fill="url(#aurora)"/>
<text x="64" y="226" font-size="24" fill="#e2e8f0">The Windows cashier terminal</text>
<text x="64" y="252" font-size="15" fill="#94a3b8">One of four development tracks of Retail Tower OS</text>
<rect x="64" y="282" width="101" height="32" rx="16" fill="#38bdf8" fill-opacity=".14" stroke="#38bdf8" stroke-opacity=".7"/>
<circle cx="80" cy="298" r="4" fill="#38bdf8"/>
<text x="92" y="303" font-size="13" font-weight="600" fill="#e2e8f0">4 tracks</text>
<rect x="177" y="282" width="193" height="32" rx="16" fill="#a78bfa" fill-opacity=".14" stroke="#a78bfa" stroke-opacity=".7"/>
<circle cx="193" cy="298" r="4" fill="#a78bfa"/>
<text x="205" y="303" font-size="13" font-weight="600" fill="#e2e8f0">1 contract boundary</text>
<rect x="382" y="282" width="126" height="32" rx="16" fill="#f472b6" fill-opacity=".14" stroke="#f472b6" stroke-opacity=".7"/>
<circle cx="398" cy="298" r="4" fill="#f472b6"/>
<text x="410" y="303" font-size="13" font-weight="600" fill="#e2e8f0">AI embedded</text>
<line x1="980.0" y1="22" x2="980.0" y2="66" stroke="#64748b" stroke-width="3"/>
<circle class="beacon" cx="980.0" cy="22" r="5" fill="#f472b6" filter="url(#glow)"/>
<rect x="797" y="63" width="180" height="62" rx="13" fill="#60a5fa" opacity=".35" filter="url(#soft)"/>
<rect x="800" y="66" width="174" height="56" rx="10" fill="url(#g-pos)" opacity="1"/>
<rect x="800.5" y="66.5" width="173" height="55" rx="10" fill="none" stroke="#ffffff" stroke-opacity="0.9" stroke-width="2"/>
<text x="887.0" y="92.0" text-anchor="middle" font-size="15" font-weight="700" fill="#fff">POS</text>
<text x="887.0" y="109.0" text-anchor="middle" font-size="11" fill="#e2e8f0" fill-opacity=".8">cashier terminal</text>
<rect x="986" y="66" width="174" height="56" rx="10" fill="url(#g-console)" opacity="0.72"/>
<rect x="986.5" y="66.5" width="173" height="55" rx="10" fill="none" stroke="#ffffff" stroke-opacity="0.18" stroke-width="1"/>
<text x="1073.0" y="92.0" text-anchor="middle" font-size="15" font-weight="700" fill="#fff">Admin-Console</text>
<text x="1073.0" y="109.0" text-anchor="middle" font-size="11" fill="#e2e8f0" fill-opacity=".8">operator web UI</text>
<rect x="800" y="134" width="360" height="66" rx="10" fill="url(#g-core)" opacity="0.72"/>
<rect x="800.5" y="134.5" width="359" height="65" rx="10" fill="none" stroke="#ffffff" stroke-opacity="0.18" stroke-width="1"/>
<text x="980.0" y="165.0" text-anchor="middle" font-size="17" font-weight="700" fill="#fff">Backend-Core</text>
<text x="980.0" y="182.0" text-anchor="middle" font-size="11" fill="#e2e8f0" fill-opacity=".8">contracts · data · workers</text>
<rect x="800" y="212" width="360" height="56" rx="10" fill="url(#g-connector)" opacity="0.72"/>
<rect x="800.5" y="212.5" width="359" height="55" rx="10" fill="none" stroke="#ffffff" stroke-opacity="0.18" stroke-width="1"/>
<text x="980.0" y="238.0" text-anchor="middle" font-size="15" font-weight="700" fill="#fff">ERPNext-Connector</text>
<text x="980.0" y="255.0" text-anchor="middle" font-size="11" fill="#e2e8f0" fill-opacity=".8">the only ERPNext adapter</text>
<rect x="830" y="280" width="300" height="38" rx="10" fill="none" stroke="#64748b" stroke-dasharray="5 5"/>
<text x="980.0" y="304" text-anchor="middle" font-size="12.5" fill="#94a3b8">ERPNext / Frappe</text>
<rect x="778.0" y="40" width="4" height="260" rx="2.0" fill="url(#auroraV)" filter="url(#glow)"/>
<line class="spark" x1="780" y1="40" x2="780" y2="300" stroke="#fff" stroke-width="4" stroke-linecap="round"/>
<path d="M780 94 H800" stroke="#f472b6" stroke-width="2" stroke-opacity=".8"/>
<circle class="pulse" style="animation-delay:0.0s" cx="800" cy="94" r="5" fill="#fff" stroke="#f472b6" stroke-width="2"/>
<circle cx="780" cy="94" r="5" fill="#0b1020" stroke="#f472b6" stroke-width="2"/>
<path d="M780 167 H800" stroke="#f472b6" stroke-width="2" stroke-opacity=".8"/>
<circle class="pulse" style="animation-delay:0.5s" cx="800" cy="167" r="5" fill="#fff" stroke="#f472b6" stroke-width="2"/>
<circle cx="780" cy="167" r="5" fill="#0b1020" stroke="#f472b6" stroke-width="2"/>
<path d="M780 240 H800" stroke="#f472b6" stroke-width="2" stroke-opacity=".8"/>
<circle class="pulse" style="animation-delay:1.0s" cx="800" cy="240" r="5" fill="#fff" stroke="#f472b6" stroke-width="2"/>
<circle cx="780" cy="240" r="5" fill="#0b1020" stroke="#f472b6" stroke-width="2"/>
<text x="780" y="332" font-size="12" fill="#f9a8d4" font-weight="700" letter-spacing="1.8">AI THREADS EVERY LAYER</text>
</svg>
