<svg xmlns="http://www.w3.org/2000/svg" viewBox="0 0 1280 560" width="1280" height="560" role="img" aria-label="Retail Tower OS data flow: POS and Admin-Console talk to Backend-Core, which feeds the ERPNext-Connector, the only path to ERPNext. An AI layer runs through all four tracks.">
<title>Retail Tower OS data flow: POS and Admin-Console talk to Backend-Core, which feeds the ERPNext-Connector, the only path to ERPNext. An AI layer runs through all four tracks.</title>

<defs>
  <linearGradient id="bg" x1="0" y1="0" x2="1" y2="1">
    <stop offset="0" stop-color="#070b1f"/><stop offset=".55" stop-color="#0c1230"/><stop offset="1" stop-color="#060918"/>
  </linearGradient>
  <linearGradient id="aurora" x1="0" y1="0" x2="1" y2="0">
    <stop offset="0" stop-color="#22d3ee"/><stop offset=".5" stop-color="#a78bfa"/><stop offset="1" stop-color="#f472b6"/>
  </linearGradient>
  <linearGradient id="auroraV" x1="0" y1="0" x2="0" y2="1">
    <stop offset="0" stop-color="#22d3ee"/><stop offset=".5" stop-color="#a78bfa"/><stop offset="1" stop-color="#f472b6"/>
  </linearGradient>
  <pattern id="grid" width="32" height="32" patternUnits="userSpaceOnUse">
    <path d="M32 0H0V32" fill="none" stroke="#94a3b8" stroke-opacity=".07" stroke-width="1"/>
  </pattern>
  <filter id="glow" x="-50%" y="-50%" width="200%" height="200%">
    <feGaussianBlur stdDeviation="6" result="b"/><feMerge><feMergeNode in="b"/><feMergeNode in="SourceGraphic"/></feMerge>
  </filter>
  <filter id="soft" x="-50%" y="-50%" width="200%" height="200%"><feGaussianBlur stdDeviation="14"/></filter>
  <marker id="arr" viewBox="0 0 10 10" refX="8" refY="5" markerWidth="7" markerHeight="7" orient="auto-start-reverse">
    <path d="M1 1L9 5L1 9z" fill="#cbd5e1"/>
  </marker>
  <linearGradient id="g-pos" x1="0" y1="0" x2="0" y2="1"><stop offset="0" stop-color="#3b82f6"/><stop offset="1" stop-color="#1e3a8a"/></linearGradient>
  <linearGradient id="g-console" x1="0" y1="0" x2="0" y2="1"><stop offset="0" stop-color="#14b8a6"/><stop offset="1" stop-color="#0e7490"/></linearGradient>
  <linearGradient id="g-core" x1="0" y1="0" x2="0" y2="1"><stop offset="0" stop-color="#8b5cf6"/><stop offset="1" stop-color="#5b21b6"/></linearGradient>
  <linearGradient id="g-connector" x1="0" y1="0" x2="0" y2="1"><stop offset="0" stop-color="#f59e0b"/><stop offset="1" stop-color="#b45309"/></linearGradient>
</defs>

<style>
  text{font-family:'Segoe UI', system-ui, -apple-system, 'Helvetica Neue', Arial, sans-serif}
  .mono{font-family:ui-monospace, SFMono-Regular, Menlo, Consolas, monospace}
  .flow{stroke-dasharray:6 8;animation:flow 1.4s linear infinite}
  .spark{stroke-dasharray:46 460;animation:spark 3.2s linear infinite}
  .pulse{animation:pulse 2.6s ease-in-out infinite}
  .beacon{animation:beacon 2s ease-in-out infinite}
  @keyframes flow{to{stroke-dashoffset:-14}}
  @keyframes spark{from{stroke-dashoffset:0}to{stroke-dashoffset:-506}}
  @keyframes pulse{0%,100%{opacity:.35}50%{opacity:1}}
  @keyframes beacon{0%,100%{opacity:.25;r:5}50%{opacity:1;r:8}}
  @media (prefers-reduced-motion: reduce){*{animation:none!important}}
</style>
<rect width="1280" height="560" rx="20" fill="url(#bg)"/>
<rect width="1280" height="560" rx="20" fill="url(#grid)"/>
<circle cx="640" cy="280" r="260" fill="#7c3aed" opacity="0.22" filter="url(#soft)"/>
<circle cx="1180" cy="120" r="140" fill="#d97706" opacity="0.12" filter="url(#soft)"/>
<rect x=".5" y=".5" width="1279" height="559" rx="20" fill="none" stroke="#334155" stroke-opacity=".7"/>
<rect x="48" y="24" width="1184" height="40" rx="10" fill="#1e293b" stroke="#475569" stroke-dasharray="6 5"/>
<text x="640" y="49" text-anchor="middle" font-size="13.5" fill="#cbd5e1"><tspan font-weight="700" fill="#fff">Orchestrator</tspan>  ·  technical handbook: architecture, ADRs, runbooks  ·  governs the tracks, holds no application code</text>
<rect x="44" y="116" width="228" height="108" rx="16" fill="#60a5fa" opacity=".4" filter="url(#soft)"/>
<rect x="104.0" y="90" width="108" height="22" rx="11" fill="#fbbf24"/>
<path d="M152.0 112h12l-6 7z" fill="#fbbf24"/>
<text x="158.0" y="105.5" text-anchor="middle" font-size="11" font-weight="800" fill="#1c1917" letter-spacing="1.2">YOU ARE HERE</text>
<rect x="48" y="120" width="220" height="100" rx="14" fill="#0f172a" stroke="#60a5fa" stroke-opacity="1" stroke-width="2.5"/>
<path d="M48 154V134a14 14 0 0 1 14 -14H254a14 14 0 0 1 14 14V154z" fill="url(#g-pos)"/>
<text x="64" y="143" font-size="16" font-weight="700" fill="#fff">POS</text>
<text x="64" y="180" font-size="12.5" fill="#cbd5e1">cashier terminal</text>
<text class="mono" x="64" y="206" font-size="11" fill="#60a5fa">Electron · SQLite</text>
<rect x="48" y="280" width="220" height="100" rx="14" fill="#0f172a" stroke="#2dd4bf" stroke-opacity="0.55" stroke-width="1.5"/>
<path d="M48 314V294a14 14 0 0 1 14 -14H254a14 14 0 0 1 14 14V314z" fill="url(#g-console)"/>
<text x="64" y="303" font-size="16" font-weight="700" fill="#fff">Admin-Console</text>
<text x="64" y="340" font-size="12.5" fill="#cbd5e1">operator web UI</text>
<text class="mono" x="64" y="366" font-size="11" fill="#2dd4bf">React · Vite</text>
<rect x="400" y="168" width="280" height="224" rx="14" fill="#0f172a" stroke="#a78bfa" stroke-opacity="0.55" stroke-width="1.5"/>
<path d="M400 202V182a14 14 0 0 1 14 -14H666a14 14 0 0 1 14 14V202z" fill="url(#g-core)"/>
<text x="416" y="191" font-size="16" font-weight="700" fill="#fff">Backend-Core</text>
<text x="416" y="228" font-size="12.5" fill="#cbd5e1">the single contract boundary</text>
<text class="mono" x="416" y="378" font-size="11" fill="#a78bfa">NestJS · PostgreSQL · Redis</text>
<circle cx="420" cy="258" r="3" fill="#a78bfa"/><text x="432" y="262" font-size="12.5" fill="#e2e8f0">tenant + store scope</text>
<circle cx="420" cy="280" r="3" fill="#a78bfa"/><text x="432" y="284" font-size="12.5" fill="#e2e8f0">OpenAPI contracts</text>
<circle cx="420" cy="302" r="3" fill="#a78bfa"/><text x="432" y="306" font-size="12.5" fill="#e2e8f0">outbox + workers</text>
<circle cx="420" cy="324" r="3" fill="#a78bfa"/><text x="432" y="328" font-size="12.5" fill="#e2e8f0">audit trail</text>
<rect x="800" y="190" width="200" height="120" rx="14" fill="#0f172a" stroke="#fbbf24" stroke-opacity="0.55" stroke-width="1.5"/>
<path d="M800 224V204a14 14 0 0 1 14 -14H986a14 14 0 0 1 14 14V224z" fill="url(#g-connector)"/>
<text x="816" y="213" font-size="16" font-weight="700" fill="#fff">ERPNext-Connector</text>
<text x="816" y="250" font-size="12.5" fill="#cbd5e1">the only ERPNext adapter</text>
<text class="mono" x="816" y="296" font-size="11" fill="#fbbf24">Frappe · Python</text>
<rect x="1080" y="200" width="152" height="100" rx="14" fill="none" stroke="#64748b" stroke-width="1.5" stroke-dasharray="6 5"/>
<text x="1156" y="244" text-anchor="middle" font-size="15" font-weight="700" fill="#cbd5e1">ERPNext</text><text x="1156" y="264" text-anchor="middle" font-size="12.5" fill="#94a3b8">Frappe v15</text>
<path d="M268 170 L334 170 L334 214 L400 214" fill="none" stroke="#cbd5e1" stroke-opacity=".25" stroke-width="2.5"/>
<path class="flow" d="M268 170 L334 170 L334 214 L400 214" fill="none" stroke="#7dd3fc" stroke-width="2.5" stroke-linecap="round" marker-start="url(#arr)" marker-end="url(#arr)"/>
<text x="334" y="150" text-anchor="middle" font-size="12" font-weight="600" fill="#e2e8f0">sales ↑ catalog ↓</text>
<path d="M268 330 L334 330 L334 346 L400 346" fill="none" stroke="#cbd5e1" stroke-opacity=".25" stroke-width="2.5"/>
<path class="flow" d="M268 330 L334 330 L334 346 L400 346" fill="none" stroke="#7dd3fc" stroke-width="2.5" stroke-linecap="round" marker-start="url(#arr)" marker-end="url(#arr)"/>
<text x="334" y="372" text-anchor="middle" font-size="12" font-weight="600" fill="#e2e8f0">catalog · sync ops</text>
<path d="M680 250 L800 250" fill="none" stroke="#cbd5e1" stroke-opacity=".25" stroke-width="2.5"/>
<path class="flow" d="M680 250 L800 250" fill="none" stroke="#7dd3fc" stroke-width="2.5" stroke-linecap="round" marker-start="url(#arr)" marker-end="url(#arr)"/>
<text x="740" y="238" text-anchor="middle" font-size="12" font-weight="600" fill="#e2e8f0">posting feed</text>
<text x="740" y="272" text-anchor="middle" font-size="11" fill="#94a3b8">+ outcome ack</text>
<path d="M1000 250 L1080 250" fill="none" stroke="#cbd5e1" stroke-opacity=".25" stroke-width="2.5"/>
<path class="flow" d="M1000 250 L1080 250" fill="none" stroke="#7dd3fc" stroke-width="2.5" stroke-linecap="round" marker-end="url(#arr)"/>
<text x="1040" y="238" text-anchor="middle" font-size="12" font-weight="600" fill="#e2e8f0">Sales Invoice</text>
<rect x="48" y="436" width="1184" height="76" rx="16" fill="url(#aurora)" opacity=".13"/>
<rect x="48.5" y="436.5" width="1183" height="75" rx="16" fill="none" stroke="url(#aurora)" stroke-width="2"/>
<rect x="72" y="456" width="52" height="36" rx="18" fill="url(#aurora)"/>
<text x="98" y="480" text-anchor="middle" font-size="18" font-weight="800" fill="#0b1020">AI</text>
<text x="146" y="470" font-size="16" font-weight="700" fill="#fff">Embedded in all four tracks</text>
<text x="146" y="491" font-size="13" fill="#cbd5e1">same contracts  ·  same tenant scope  ·  same audit trail  ·  no side door</text>
<text x="1156" y="326" text-anchor="middle" font-size="11" fill="#94a3b8">no direct AI path:</text><text x="1156" y="341" text-anchor="middle" font-size="11" fill="#94a3b8">reached only via the Connector</text>
<rect x="538.5" y="392" width="3" height="44" rx="1.5" fill="url(#auroraV)"/>
<circle class="pulse" style="animation-delay:0.0s" cx="540" cy="392" r="4.5" fill="#fff" stroke="#f472b6" stroke-width="2"/>
<rect x="598.5" y="392" width="3" height="44" rx="1.5" fill="url(#auroraV)"/>
<circle class="pulse" style="animation-delay:0.35s" cx="600" cy="392" r="4.5" fill="#fff" stroke="#f472b6" stroke-width="2"/>
<rect x="658.5" y="392" width="3" height="44" rx="1.5" fill="url(#auroraV)"/>
<circle class="pulse" style="animation-delay:0.7s" cx="660" cy="392" r="4.5" fill="#fff" stroke="#f472b6" stroke-width="2"/>
<rect x="868.5" y="310" width="3" height="126" rx="1.5" fill="url(#auroraV)"/>
<circle class="pulse" style="animation-delay:1.0499999999999998s" cx="870" cy="310" r="4.5" fill="#fff" stroke="#f472b6" stroke-width="2"/>
<rect x="928.5" y="310" width="3" height="126" rx="1.5" fill="url(#auroraV)"/>
<circle class="pulse" style="animation-delay:1.4s" cx="930" cy="310" r="4.5" fill="#fff" stroke="#f472b6" stroke-width="2"/>
<rect x="28.5" y="170" width="3" height="266" rx="1.5" fill="url(#auroraV)"/>
<path d="M30 170 H48 M30 330 H48" stroke="#f472b6" stroke-width="2.5" stroke-linecap="round"/>
<circle class="pulse" style="animation-delay:0.0s" cx="48" cy="170" r="4.5" fill="#fff" stroke="#f472b6" stroke-width="2"/>
<circle class="pulse" style="animation-delay:0.4s" cx="48" cy="330" r="4.5" fill="#fff" stroke="#f472b6" stroke-width="2"/>
</svg>
